<?xml version="1.0" encoding="utf-8"?>
<!-- Generator: Adobe Illustrator 26.5.0, SVG Export Plug-In . SVG Version: 6.00 Build 0)  -->
<svg version="1.1" id="Lag_1" xmlns="http://www.w3.org/2000/svg" xmlns:xlink="http://www.w3.org/1999/xlink" x="0px" y="0px"
	 viewBox="0 0 2500 2500" style="enable-background:new 0 0 2500 2500;" xml:space="preserve">
<style type="text/css">
	.st0{fill-rule:evenodd;clip-rule:evenodd;fill:#FFFFFF;}
	.st1{fill-rule:evenodd;clip-rule:evenodd;fill:#CC2229;}
</style>
<g>
	<path class="st0" d="M0,0h2500v2500H0V0z"/>
	<path class="st1" d="M500.8,1118.2c13.1-10.9,25.2-21.7,42.4-32.7c1.7-1.1,3.3-1.9,5.6-1.6c4.7,0.8,11.5-3.2,16.2-7.2
		c6.1-5.1,12.7-7.9,21.2-11.9c16.2-7.7,39.3-14.8,61-21.7c4.9-2,8.7-2.7,5.3,5.3c-7.8,19.1-17.4,25-27.7,27.7
		c-21.6,5.7-32.9,11.3-44.6,17.2c21.3-6.9,45-15.9,60.1-18.8c4.3-0.8,5.6,0.3,4,3.3c-11.7,21.8-27.5,24.7-42,30
		c15.1-7.8,28.1-16.1,35.2-26.2c2-2.8,1.3-3.7-1.6-3c-35.7,8.7-69.9,22.7-101.3,41.7c6.1-3.9,24.9-26.3,79.8-44.9
		c15-5.1,26.8-12.4,34-26.8c0.4-1.9,0.5-3.4-1.9-2.5c-27.5,8.8-53.3,17-72.1,28.4c-5.3,3.2-9.8,7.4-18.9,11.2
		C540.1,1092.2,519.8,1107,500.8,1118.2z M577.6,1142.6c3.6-1.2,7.1-2.6,11.1-3.2c2.7-0.3,4,0.2,3.6,2.1c-0.5,3.2-2.7,4.6-4.8,5.8
		c1.4-3.6,2-5.7,0.6-5.6C584.7,1142.1,581.1,1142.2,577.6,1142.6L577.6,1142.6z M572.4,1119.3c13-5.2,26.5-10,43.4-12.7
		c3.3-0.5,4.5,0.3,3.3,2.7c-3.2,6.4-8.6,10.8-13.7,15.3c4.8-9.9,4.3-12.1,1.3-11.7C595.4,1114.6,583.9,1116.7,572.4,1119.3
		L572.4,1119.3z M459.1,1156.5c9.6-11.8,19.5-23.6,37.5-36.8c-3.3,6-6.6,11.7-13.6,17.2C474.9,1143.1,467.1,1149.9,459.1,1156.5z
		 M340.2,1259.5c16.8-23.7,33.4-47.1,52.3-70.3c15.7-19.3,31.1-34.8,50.5-52.7c14.2-13.1,29.1-25.3,44.7-36.6
		c17.7-12.8,35.5-25.6,54.2-37.3c29.4-18.5,56.7-30.7,84.2-41c7.2-2.7,9.2-0.1,6.6,5.9c-5.6,12.7-11.8,17.6-18.3,22.7
		c4.8-6.3,9.4-13,11.7-19c2.1-5.4,1.4-5.6-5.9-2.9c-30.8,11.1-60.3,28.8-90.8,46.8c-30,17.7-50.7,33.9-68.8,50.5
		c-12.5,11.5-25.6,22.2-38.1,33.7c-12.9,11.9-21.5,23.8-30,35.1C351.2,1249.3,340.2,1262.7,340.2,1259.5L340.2,1259.5z
		 M380.9,1162.3v-3.3h5.1l3.6,5.8c-2.9-0.9-5-0.9-5.8,0.1c3.8,1,5.6,2.9,5.8,5.5c5.6,0.7,7.8,5.3,4.9,10c-2.9,4.8-9.7,2.3-13.5,0.6
		c1.6-0.5,3.2-0.9,4.8-1.5c1.5-0.7,2.1-0.4,2.9-0.5c1.4-0.1,1.5-0.8,0.5-1.6c-1-0.8-2.2-1.9-3.2-2.8c4.1-0.5,4.3-1.2,0.9-2.1
		c-3.9-1-7.8-2.5-11.4-4.3l7.2-1l-8-4.5L380.9,1162.3L380.9,1162.3z M355.9,1140.2c5.5,0.8,10.2,1.1,13,0l0.8,3l5.2,0.1l0.5,7.4
		c0.2,2.2-2.2,1.5-4.4-1.7l-3.5,0v-2l2.1,0v-2.1L355.9,1140.2L355.9,1140.2z M402.9,1250c26.3-0.2,19.2-20.6,5.3-19.9
		C415.4,1235.6,417.6,1244.3,402.9,1250z M387.7,1246.8c15.7-6,11.6-20-2.3-19.4C392.6,1232.1,394.2,1238.3,387.7,1246.8z
		 M402.3,1229.3c15.7-5,11.6-16.5-2.3-16C407.2,1217.1,408.8,1222.3,402.3,1229.3z M407.4,1194.3c23.7-0.3,26-5.1,13.5-13.2
		c15.9-1.7,18.2,14.1-2.5,15.5c7.7,5.2,10.8,11.5-0.6,16.2c19.5-1.4,20.8,18.7,0.6,18.9c19.3-10.4,5.3-16.5-9.3-17.9
		C425.4,1204.4,418.1,1199.1,407.4,1194.3L407.4,1194.3z M310.8,1247c0.3-11.2,0.9-22.3,3.6-33.5c1.4,9.7,4,18.6,8.3,26.1
		c3.8,6.7-2,12.6-10.1,16c-17.7,7.6-21.3,12.1-27.6,17.8C292.7,1263.8,301.4,1255,310.8,1247z M269.7,1267.8
		c4.2-7.7,10.9-13.7,21.7-24.1c7.9-7.6,8.4-19.7,3.4-29.9c-3.2-6.2-4.3-13.3-3-20.2c2.3,9.5,7.7,17.5,11,26.6
		c3.6,9.9,1.9,20-8.2,27.2C281.1,1256.8,275.3,1261.7,269.7,1267.8L269.7,1267.8z M223.2,1215c-0.1-3.7,1.4-6.9,6.2-6.8
		c2.5,0,3.2,1.9,2.9,3.3c-0.4,1.8,0.9,1.7,2,1.1c3.4-1.9,6.8-3.8,10.3-3.8c4.9-0.1,4.5,2.4,4.1,4.2c-1-2.3-2.5-3.4-4.5-3
		c-6.6,1.3-8.5,4.9-11.7,7.5C227.2,1221.9,223.3,1219.2,223.2,1215L223.2,1215z M397.5,1325.2c7.4,2.6,13.5-1.5,15.4-10.3
		C408.1,1319.2,403,1323.1,397.5,1325.2z M396.2,1312.9c5.3,1.9,9.2-0.3,11.8-6.7C404.4,1308.9,400.4,1311.2,396.2,1312.9z
		 M439.1,1325.7c-13.2-6.4-17.9-26-8.1-32.8C427.1,1304.3,431.3,1315.1,439.1,1325.7z M478.9,1277.8c13,6.9,23,18.9,25.9,42.4
		C498.5,1302.6,489.6,1288.9,478.9,1277.8z M391,1267.8c25,1.4,15.7-20.5-0.2-17.3C404.2,1255.9,406.9,1260.9,391,1267.8z
		 M372.6,1264.5c20.3-1.2,7.5-19.8-5.7-15.2C374.9,1253.7,381.1,1255.3,372.6,1264.5z M530.7,1322.1c8.1,3.3,16.1,6.8,25.5,12.4
		c14,8.2,29.3,11.3,45.3,11.4l0.2,5.2c-16.1,0.8-32-2.3-46.8-13.4C547.1,1331.8,539,1326.9,530.7,1322.1L530.7,1322.1z
		 M530.9,1309.2c5.4-0.4,10.6-1.3,16.5,0.8c5.6,2,12.4,2.6,19.7,3.1c-5.3,1-10.4,1.9-17.4-0.3
		C544.5,1311.3,537.7,1310.5,530.9,1309.2z M322.4,1173.6c-6.8-8.4-14.3-15.3-22.4-19.8c-0.4,9.6,3,26.8,20.5,41.7l-2.6,5.1
		c-9.2-11.6-16.9-23.8-19.2-38.4c-3,13.2-1.4,23.6-14.4,32.8c6.1-7.6,14.9-22.9,9.4-33.6c-1.7,2.1-4,5.1-8.7,4.8
		c-6-0.4-10.1-6.2-9.1-12.8c2.5,7.3,5.7,12,10.4,9.8c10.2-4.6,3.6-14-2.5-21.9c7.6-0.1,14.8,4,21.3,10c7.5,7,13.9,13,19.6,20.9
		c8.9,12.1,14.4,26.4,15.9,41.4C337.2,1197.8,331.2,1184.5,322.4,1173.6L322.4,1173.6z M261.5,1173.9c3.2-1,3.3-3.4,2.9-5.1
		c-0.8-3.2-3.3-3.5-6.6-2l-0.3-3.1c3-0.1,6,0.5,8.6,2.4c2.2,1.6,4.4,2.2,6.7,2.1c0.5,2.1-3.7,7.6-11.8,7.8
		C259.4,1176,259.5,1174.5,261.5,1173.9L261.5,1173.9z M238.9,1173.8c2.2-3.2,4.5-6.4,6.7-9.5v-6c2.8-4.2,6.6-8.1,11.8-11.6l0.9,12
		c-5.9,2.8-11.3,8.4-16.3,15.1c-8.2,11.1-14.4,22.3-20.5,33.5C225.6,1196.7,230.9,1185.7,238.9,1173.8L238.9,1173.8z M634.2,1293.1
		c0.7,0.1,1.3,0.3,1.9,0.5c0.2,1.5,0.3,2.9,0.5,4.4l-8.7,3.9l9.4-0.5l4.8,14.3c-1.1,0.8-2.2,1.5-3.2,2.3l5.3,0.5v7.6h2.5v10.8
		c-11.9,8.8-24.5,15.8-38.6,16.8c-21.6,1.5-42.4-3.2-63-19.1c-9.8-7.5-21-13.1-32.9-16.3c0.8,16.2-2.3,31.9-10.4,47.6
		c-4.6,8.9-9.3,18.9,6.1,17.9c11.5-0.8,23.1-1.5,34.6-2.9c9.5-1.2,10.8,3.8,12.7,10.8c6.1,21.5,21,41.4,34.9,60.1
		c2.1,2.9,1.3,6.2,1.8,11.5c0.6,6.5,6.3,2.6,7,0c0.7-2.7,1.6-5.7,3.6-8.2c3.1-3.9,6.7-1,10,1.2c11.8,6.1,16.1,13.8,16.4,22.4
		c0.1,2.9-0.8,3.8-3.3,3.3c-10.2-1.9-21.2-1-32.7-2.7c-7.3-1.1-10.8-8.9-14.2-16.1c-9.1-19.1-19.9-36.9-32.2-51.2
		c-6.8-7.8-14-8.4-21.2-4.9c-7.5,3.7-11.1,2.1-14.9,0.6c-7.8-3.1-13.2-0.2-17.9,2.7c2.5,2.7,5.1,5.4,7.6,8.2c2,2.3,0.4,4.8,0,8.8
		c-1.1,10.9,7.1,7.9,8.5-4.2c12.8-1.7,22.7,5,27.7,19.6c-10.3,1.7-20.8,3.4-31.3,6.7c-4.7,1.5-6.1-0.8-7.6-4.6
		c-3.3-8.9-8.8-16.8-13.3-25.2c-1.2-2.2-1.6-4.2-0.9-6.4c-10.2-1.4-14.6-14-20.6-30.4c-13.1-2.9-26.9-5.2-40.3-5.1
		c-10,0.1-18.4-11.2-26.8-27.8c-68.5,12.2-92.2,7.3-113.1-12c-3.8-3.5-8.4-6.1-12.7-9l-9.1-0.6c-3.6-0.2-4.9-2.4-6.2-4.6l-47-25.8
		c-0.1,13.3-1.4,26.5-3.9,39.5c-1.2,6.7,2.1,4,7.3-0.7c9.4-8.6,25.2,12.6,13.7,30.9c-12-6.5-24.2-12.5-36-19.4
		c-5.4-3.2-4.7-10.2-2.3-18.2c3.5-11.6,6.3-23.5,8.5-35.8c-10.4-6.7-23.3-6.4-39.2,2.3c-4.3,2.1-7,1.9-10.8-2
		c-11.1-11.7-6.5,8.6-2.6,12.1c-5.8,4.6-18,6-25.5,1.4c-5.7-3.6-9.4-8.3-0.4-14.9c4.3-3.1,8.7-6.1,12.8-9.5c4-3.4,7.7-3.9,11.7-3.6
		c12.3,1.1,24.6,0.4,36.7-2.1c7.5-1.6,14.1,0.2,20.6,3.1c6.9-5,14.2-9.6,20.8-15c3.8-3.1,7.4-2.6,11.6,0
		c9.1,5.5,18.2,10.9,27.3,16.3c1.8-13.2,4.4-26.2,16.3-42.9c9.7-13.7,13.8-27.4,11.3-39.9l-5.5-0.1c-4,6-10.6,11.6-22,17.4
		c-6.1,3.1-9.2,7.5-11.1,11.9c-6.7,6-10.5,5.1-14.6,3.9c-2.2-0.7-1.9-3.1,0.3-4.9c5.3-4,9.8-6.6,12.1-10.4c1-1.6,1.7-5.3-3.9-1.7
		c-5.5,3.6-8.6,8.2-11.4,12.6c-2.2,3.4-5.6,6.1-10.2,0.7c-2.6-3-4.1-6.8-6.8-9.7c-2.9-3.2-2-6.2,1.2-9.7c1.8-2.2,4-3.7,5.3-6.2
		c5.4-9.7,10.2-20.2,17.7-29.6l0.3-7.1c-0.6-4.6,1.1-8.1,4.7-11.2c5-4.2,9.6-9,14.4-13.5c-3.2-6-6.5-12-9.5-18.1
		c-0.6-1.3-0.1-1.3,1.3-0.7c6.4,2.9,11.9,7.8,17,13.3c4.7-7.5,5.7-16.6,5.9-26.1c0.1-4.5,1.9-2.7,3.9-0.3c5.4,6.4,7.6,15.3,7.8,25.3
		c0,1.9,0,3.2,4.3,0.5c3-3,12.8-5,26.8-0.5c-3.2,0.4-6,1-6.5,2.4l9.1,0.2c1.2,0.4,2.9,1.2,4,1.8c-2.7,0.3-5.1,0.7-6.8,1.8
		c4.3,0.3,7.8,1,10.6,2.1l0.2,2.9c1.3,0,2.6,0,3.9,0l3.7,3.1l-4,0l7.9,5.1c1.9,1.6,3.8,2.6,5.1,1.9c0.9-0.4,1.8-1,2.5,0.6
		c0.6,1.3,0.8,2.9,1.1,4.3c-4.4,0.4-8.9,0.3-13.3-0.1c4,1.7,8.8,3,13.9,4.2l0.1,2.3c-1.6,0-2.8,0.1-2.5,1.5c0.2,1.1,1.9,0.7,3.7,0.3
		l5.3,4.5c2.8-16.5,18.4-52.8,26.2-67c1.4-2.5,3.9-3.2,6.5,0.9c3.8,6.1,4.9,13.2,4.9,21.3c5.7-6.1,10.8-12.4,15.4-18.3
		c2.5-3.2,4.6-2,5.6,2.7c1.8,8.6,1.1,17.4-1.7,26.4c5.5-1.4,9.7-0.2,4.9,19.8c112-103.7,169.6-128,216.3-141.6
		c7.1-2.1,10.8-1.1,7.4,7.2c-2.8,6.8-6.8,13.6-11.1,20.4c9-2.3,18-4.4,26.9-7.5c5.2-1.8,7.8,0.1,6.2,6c-2.9,11.1-9.2,18.4-15.8,24.3
		c5.8-1.9,11-2.3,8.2,6.7c-3,9.8-13.9,18.7-30.1,27.2c2.3-0.1,4,0.3,3.2,4.4c-2.2,10.9-11.2,20.6-25.6,29.4c3.8,0.8-1.8,0.6-0.1,0.6
		c0.5,12.1-12.4,21.2-27.3,29.9c3.8,0.4,7.6,0.4,11.3,0.2c-3.1,7.8-7.9,13.1-13.7,16.1c-6.1,3.2-12.9,4.5-19.8,7.6
		c3.1,0.5,6.5,0.7,10.1,0.8c-1.7,4.6-3.5,9.8-12.4,15.6c8.2,2.2-0.3,8-24.6,19c-1.4,11.5-10.4,18.6-31.7,20.4
		c-2.2,5.8-7,10.6-12.8,13c-4.4,1.8-7.8,4.5-11.4,8c12.9,2.7,25.7,12,38.6,31c12.5-2.5,24.9-1.8,37.4-0.4
		c30.1,3.3,60.3-5.8,90.5-14.1l1,5.2c-11.1,4.3-22.2,8.4-36.7,9.9l1.4-3c-34.9,9.5-43.3,6.2-58.4,4.4c-18.4-2.2-28.9-1.8-34.3,2.9
		c15.4-1.4,29.7,1.2,43.9,4c5.8,1.1,8.9-0.6,9-2.5C612.1,1305.1,616.9,1298.3,634.2,1293.1L634.2,1293.1z M236.3,1295.2l-20.8-7.1
		c3.2-2.4,7.6-4,12.1-0.2L236.3,1295.2z M231.9,1284c35.9,21.9,53.2,35.3,50.9,20c4.9,11.5-2.7,17.8-6.6,10.9
		C257.3,1303.4,242.3,1293.6,231.9,1284L231.9,1284z M777.1,1122.6h113.4c2.6,0,5.4,0.1,8.4,0.2c3,0.1,6,0.3,8.8,0.8
		c7.8,1.2,15,4.7,21.6,10.4s9.8,16.4,9.8,32.2v100.8c0,16.4-3.7,27.4-11,33c-7,5.5-15.5,8.9-24.3,9.9c-2.3,0.3-4.7,0.4-7.1,0.5
		c-2.2,0.1-4.5,0.2-6.7,0.2H847v77.2h-69.9L777.1,1122.6L777.1,1122.6z M2195.5,1311.4v44.3c0,5.5,7.5,9.8,11,9.9
		c3.4,0.1,11.4-3.2,11.4-9.9v-34.2c0-11.6-9.2-21-17.3-26.8l-55.2-39.6c-15.9-11.4-20.4-32.5-20.4-51.6v-40.2
		c0-36.8,33.4-45.1,42.5-45.1h74.5c31,0,46.5,11.7,46.5,44.8v39.4h-69.3v-47.9c0-4.4-8.4-6.7-12.2-7.3c-4,0.3-11.6,2.6-11.6,7.3
		v35.6c0,14.3,10.9,25.6,20.9,32.2l47.1,31.2c13.2,8.8,24.3,21.5,24.3,39.9v63.3c0,2.1-0.3,4.3-0.8,6.6c-3.5,24-27.7,28.7-47.8,28.7
		h-59c-29.3,0-55.6-11.8-55.6-43.9v-36.7H2195.5L2195.5,1311.4z M849.6,1288.1c7.9,0,13.3-1.2,16.1-3.7c2.9-2.5,4.3-6.2,4.3-11.1
		v-112.3c0-0.8-0.1-1.7-0.3-2.7c-0.2-1.1-0.5-2.1-0.8-3.1c-0.7-2.6-2.4-4.9-5.1-7c-2.7-2.1-7.1-3.1-13.2-3.1h-3.8v143.1
		L849.6,1288.1L849.6,1288.1L849.6,1288.1z M1007.5,1122.6h130.8v18.5h-61v105.1h59.1v18.3h-59.1v105.3h61.8v17.8h-131.7
		L1007.5,1122.6L1007.5,1122.6L1007.5,1122.6z M1368.8,1256.7v91.8c0,18.7-4.3,30.5-13,35.3c-8.6,4.8-18.2,7.5-28.7,7.9
		c-1.6,0.1-3.3,0-5.1,0c-1.8,0-3.5-0.1-5.1,0l-3.9,0.3h-60.1c-15.9,0-27.4-2.9-34.3-8s-11.3-10.9-13.1-17.2c-1-3.2-1.7-6.5-2-9.8
		c-0.2-2.7-0.4-5.5-0.4-8.2v-185.2c0-15.6,3.5-26.4,10.4-32.7c6.9-6.2,14.4-10,22.6-11.5c5.5-0.8,11-1.2,16.5-1.3h65.5
		c22,0,35.9,3.2,41.8,9.6c5.9,6.4,9,13.5,9.2,21.3v91.8h-69.9v-87.7c0-4.9-8.2-7.8-12.7-8.5c-4.2,0.7-13.5,3.9-13.5,8.5v202.3
		c0,7.8,7.1,9.6,13.5,10.4c5.3-0.7,12.4-3,12.4-9.6v-78.8h-18.1v-20.8L1368.8,1256.7L1368.8,1256.7L1368.8,1256.7z M1479.9,1122.6
		h64.9l56.4,265h-68.3l-5.2-47h-29.5l-5.3,47h-67.9L1479.9,1122.6L1479.9,1122.6z M1524.4,1314.7l-12.4-106.3l-11,106.3H1524.4z
		 M1726.8,1311.4v44.3c0,5.5,7.5,9.8,11,9.9c3.5,0.1,11.4-3.2,11.4-9.9v-34.2c0-11.6-9.2-21-17.3-26.8l-55.2-39.6
		c-15.9-11.4-20.4-32.5-20.4-51.6v-40.2c0-36.8,33.4-45.1,42.5-45.1h74.5c31,0,46.5,11.7,46.5,44.8v39.4h-69.4v-47.9
		c0-4.4-8.4-6.7-12.2-7.3c-4,0.3-11.6,2.6-11.6,7.3v35.6c0,14.3,11,25.6,20.9,32.2l47.1,31.2c13.2,8.8,24.3,21.5,24.3,39.9v63.3
		c0,2.1-0.3,4.3-0.8,6.6c-3.5,24-27.7,28.7-47.8,28.7h-59c-29.3,0-55.6-11.8-55.6-43.9v-36.7L1726.8,1311.4L1726.8,1311.4z
		 M1958.3,1122.6v231.9c0,8.8,7.7,11.8,14.1,11.8c6.4,0,14.1-3.2,14.1-11.8v-231.9h66.4v225.9c0,40-19.9,43.5-49.5,43.5h-64.6
		c-28.6,0-49.4-7.2-49.4-43.2v-226.2L1958.3,1122.6L1958.3,1122.6z M2347,1347.1h5.9c3.8,0,6.2-0.2,7.1-0.5c0.9-0.3,1.7-0.9,2.2-1.7
		c0.6-0.9,0.8-1.9,0.8-3c0.1-1.2-0.3-2.3-1.1-3.2c-0.8-0.9-1.8-1.4-3-1.5c-1.9-0.1-3.9-0.2-5.8-0.1h-6.2L2347,1347.1L2347,1347.1z
		 M2339.1,1369.8v-39.3h16.7c4.2,0,7.3,0.4,9.2,1.1c1.9,0.7,3.5,2,4.6,3.8c1.2,1.8,1.7,3.9,1.7,6.2c0.1,2.7-0.8,5.3-2.6,7.3
		c-1.7,1.9-4.3,3.1-7.8,3.6c1.7,1,3.1,2.1,4.3,3.3c1.1,1.2,2.6,3.3,4.5,6.4l4.8,7.7h-9.5l-5.7-8.6c-1.3-2-2.7-3.9-4.2-5.8
		c-0.7-0.7-1.5-1.3-2.4-1.6c-1.3-0.3-2.7-0.5-4-0.4h-1.6v16.4L2339.1,1369.8L2339.1,1369.8z M2353.8,1321.2
		c16.8,0,30.5,13.7,30.5,30.5c0,16.8-13.7,30.5-30.5,30.5c-16.8,0-30.5-13.7-30.5-30.5C2323.2,1334.9,2337,1321.2,2353.8,1321.2z
		 M2353.8,1315.8c19.8,0,35.9,16.1,35.9,35.9c0,19.8-16.1,35.9-35.9,35.9c-19.8,0-35.9-16.1-35.9-35.9
		C2317.9,1331.9,2333.9,1315.8,2353.8,1315.8z"/>
</g>
</svg>
